<svg width="762" height="410" viewBox="0 0 762 410" fill="none" xmlns="http://www.w3.org/2000/svg">
<rect width="762" height="410" rx="5" fill="#C4C4C4"/>
<circle cx="381.5" cy="205.5" r="127.5" fill="#B3B8B9"/>
<path d="M298.789 182V156.44H302.029V182H298.789ZM335.968 182H332.8V171.488C332.8 169.52 332.476 168.068 331.828 167.132C331.204 166.196 330.268 165.728 329.02 165.728C327.748 165.728 326.596 166.196 325.564 167.132C324.532 168.044 323.8 169.232 323.368 170.696V182H320.2V171.488C320.2 169.496 319.888 168.044 319.264 167.132C318.64 166.196 317.704 165.728 316.456 165.728C315.208 165.728 314.056 166.184 313 167.096C311.968 167.984 311.236 169.172 310.804 170.66V182H307.636V163.208H310.516V167.24C311.284 165.848 312.28 164.78 313.504 164.036C314.728 163.268 316.108 162.884 317.644 162.884C319.204 162.884 320.452 163.316 321.388 164.18C322.324 165.02 322.9 166.112 323.116 167.456C324.796 164.408 327.184 162.884 330.28 162.884C331.72 162.884 332.848 163.232 333.664 163.928C334.504 164.6 335.092 165.536 335.428 166.736C335.788 167.912 335.968 169.256 335.968 170.768V182ZM339.418 176.564C339.418 175.364 339.754 174.332 340.426 173.468C341.122 172.58 342.07 171.896 343.27 171.416C344.47 170.936 345.862 170.696 347.446 170.696C348.286 170.696 349.174 170.768 350.11 170.912C351.046 171.032 351.874 171.224 352.594 171.488V170.12C352.594 168.68 352.162 167.552 351.298 166.736C350.434 165.896 349.21 165.476 347.626 165.476C346.594 165.476 345.598 165.668 344.638 166.052C343.702 166.412 342.706 166.94 341.65 167.636L340.498 165.404C341.722 164.564 342.946 163.94 344.17 163.532C345.394 163.1 346.666 162.884 347.986 162.884C350.386 162.884 352.282 163.556 353.674 164.9C355.066 166.22 355.762 168.068 355.762 170.444V178.4C355.762 179.144 356.098 179.528 356.77 179.552V182C356.458 182.048 356.182 182.084 355.942 182.108C355.726 182.132 355.546 182.144 355.402 182.144C354.658 182.144 354.094 181.94 353.71 181.532C353.35 181.124 353.146 180.692 353.098 180.236L353.026 179.048C352.21 180.104 351.142 180.92 349.822 181.496C348.502 182.072 347.194 182.36 345.898 182.36C344.65 182.36 343.534 182.108 342.55 181.604C341.566 181.076 340.798 180.38 340.246 179.516C339.694 178.628 339.418 177.644 339.418 176.564ZM351.658 177.896C351.946 177.56 352.174 177.224 352.342 176.888C352.51 176.528 352.594 176.228 352.594 175.988V173.648C351.058 173.048 349.474 172.748 347.842 172.748C346.234 172.748 344.926 173.072 343.918 173.72C342.934 174.344 342.442 175.208 342.442 176.312C342.442 176.912 342.598 177.5 342.91 178.076C343.246 178.628 343.726 179.084 344.35 179.444C344.998 179.804 345.79 179.984 346.726 179.984C347.71 179.984 348.646 179.792 349.534 179.408C350.422 179 351.13 178.496 351.658 177.896ZM368.315 182.216C366.611 182.216 365.099 181.772 363.779 180.884C362.483 179.972 361.463 178.784 360.719 177.32C359.999 175.856 359.639 174.296 359.639 172.64C359.639 170.864 359.999 169.244 360.719 167.78C361.463 166.292 362.495 165.104 363.815 164.216C365.135 163.328 366.647 162.884 368.351 162.884C369.911 162.884 371.267 163.268 372.419 164.036C373.595 164.804 374.579 165.776 375.371 166.952V163.208H378.179V181.784C378.179 183.56 377.747 185.06 376.883 186.284C376.043 187.508 374.891 188.432 373.427 189.056C371.987 189.704 370.379 190.028 368.603 190.028C366.491 190.028 364.763 189.656 363.419 188.912C362.075 188.168 360.959 187.16 360.071 185.888L361.907 184.268C362.651 185.372 363.611 186.2 364.787 186.752C365.987 187.304 367.259 187.58 368.603 187.58C369.755 187.58 370.811 187.364 371.771 186.932C372.755 186.524 373.535 185.888 374.111 185.024C374.711 184.16 375.011 183.08 375.011 181.784V178.472C374.315 179.624 373.355 180.536 372.131 181.208C370.931 181.88 369.659 182.216 368.315 182.216ZM369.287 179.624C370.175 179.624 371.027 179.42 371.843 179.012C372.659 178.604 373.343 178.076 373.895 177.428C374.471 176.78 374.843 176.108 375.011 175.412V170.012C374.507 168.74 373.691 167.696 372.563 166.88C371.435 166.04 370.247 165.62 368.999 165.62C367.727 165.62 366.623 165.968 365.687 166.664C364.775 167.36 364.067 168.248 363.563 169.328C363.083 170.408 362.843 171.536 362.843 172.712C362.843 173.96 363.131 175.112 363.707 176.168C364.283 177.2 365.051 178.04 366.011 178.688C366.995 179.312 368.087 179.624 369.287 179.624ZM391.608 182.36C389.736 182.36 388.08 181.916 386.64 181.028C385.2 180.14 384.072 178.952 383.256 177.464C382.44 175.976 382.032 174.356 382.032 172.604C382.032 170.828 382.44 169.208 383.256 167.744C384.072 166.28 385.2 165.104 386.64 164.216C388.104 163.328 389.772 162.884 391.644 162.884C393.54 162.884 395.184 163.34 396.576 164.252C397.992 165.14 399.084 166.316 399.852 167.78C400.644 169.22 401.04 170.78 401.04 172.46C401.04 172.988 401.016 173.396 400.968 173.684H385.38C385.476 174.908 385.812 176 386.388 176.96C386.988 177.896 387.756 178.64 388.692 179.192C389.628 179.72 390.636 179.984 391.716 179.984C392.868 179.984 393.948 179.696 394.956 179.12C395.988 178.544 396.696 177.788 397.08 176.852L399.816 177.608C399.216 179 398.172 180.14 396.684 181.028C395.196 181.916 393.504 182.36 391.608 182.36ZM385.272 171.488H398.088C397.992 170.264 397.644 169.184 397.044 168.248C396.444 167.312 395.676 166.58 394.74 166.052C393.804 165.524 392.772 165.26 391.644 165.26C390.54 165.26 389.52 165.524 388.584 166.052C387.648 166.58 386.88 167.312 386.28 168.248C385.704 169.184 385.368 170.264 385.272 171.488ZM429.975 182H426.807V171.488C426.807 169.496 426.495 168.044 425.871 167.132C425.271 166.196 424.347 165.728 423.099 165.728C422.235 165.728 421.371 165.944 420.507 166.376C419.667 166.808 418.911 167.396 418.239 168.14C417.591 168.86 417.123 169.7 416.835 170.66V182H413.667V163.208H416.547V167.24C417.291 165.92 418.359 164.864 419.751 164.072C421.167 163.28 422.703 162.884 424.359 162.884C425.823 162.884 426.951 163.232 427.743 163.928C428.559 164.6 429.135 165.536 429.471 166.736C429.807 167.912 429.975 169.256 429.975 170.768V182ZM443.11 182.36C441.238 182.36 439.582 181.916 438.142 181.028C436.726 180.116 435.622 178.928 434.83 177.464C434.038 175.976 433.642 174.368 433.642 172.64C433.642 170.888 434.038 169.28 434.83 167.816C435.646 166.328 436.762 165.14 438.178 164.252C439.618 163.34 441.262 162.884 443.11 162.884C444.982 162.884 446.626 163.34 448.042 164.252C449.482 165.14 450.598 166.328 451.39 167.816C452.206 169.28 452.614 170.888 452.614 172.64C452.614 174.368 452.206 175.976 451.39 177.464C450.598 178.928 449.494 180.116 448.078 181.028C446.662 181.916 445.006 182.36 443.11 182.36ZM436.882 172.676C436.882 173.972 437.158 175.148 437.71 176.204C438.286 177.26 439.042 178.1 439.978 178.724C440.914 179.324 441.958 179.624 443.11 179.624C444.262 179.624 445.306 179.312 446.242 178.688C447.202 178.064 447.958 177.224 448.51 176.168C449.086 175.088 449.374 173.9 449.374 172.604C449.374 171.308 449.086 170.132 448.51 169.076C447.958 168.02 447.202 167.18 446.242 166.556C445.306 165.932 444.262 165.62 443.11 165.62C441.958 165.62 440.914 165.944 439.978 166.592C439.042 167.216 438.286 168.056 437.71 169.112C437.158 170.168 436.882 171.356 436.882 172.676ZM465.891 181.064C465.507 181.232 464.895 181.472 464.055 181.784C463.239 182.096 462.327 182.252 461.319 182.252C460.167 182.252 459.171 181.94 458.331 181.316C457.491 180.668 457.071 179.672 457.071 178.328V165.692H454.515V163.208H457.071V156.944H460.239V163.208H464.451V165.692H460.239V177.356C460.287 178.028 460.515 178.532 460.923 178.868C461.331 179.18 461.811 179.336 462.363 179.336C462.987 179.336 463.563 179.228 464.091 179.012C464.619 178.796 464.967 178.64 465.135 178.544L465.891 181.064ZM316.602 218.36C314.73 218.36 313.074 217.916 311.634 217.028C310.194 216.116 309.066 214.916 308.25 213.428C307.434 211.94 307.026 210.32 307.026 208.568C307.026 206.792 307.422 205.172 308.214 203.708C309.006 202.244 310.122 201.08 311.562 200.216C313.002 199.328 314.67 198.884 316.566 198.884C318.414 198.884 320.022 199.304 321.39 200.144C322.782 200.96 323.814 202.064 324.486 203.456L321.39 204.428C320.91 203.54 320.238 202.856 319.374 202.376C318.51 201.872 317.55 201.62 316.494 201.62C315.342 201.62 314.286 201.92 313.326 202.52C312.39 203.12 311.646 203.948 311.094 205.004C310.542 206.036 310.266 207.224 310.266 208.568C310.266 209.888 310.542 211.088 311.094 212.168C311.67 213.224 312.426 214.064 313.362 214.688C314.322 215.312 315.378 215.624 316.53 215.624C317.274 215.624 317.982 215.492 318.654 215.228C319.35 214.964 319.95 214.616 320.454 214.184C320.982 213.728 321.342 213.236 321.534 212.708L324.63 213.644C324.078 215.012 323.07 216.14 321.606 217.028C320.166 217.916 318.498 218.36 316.602 218.36ZM328.04 210.476V199.208H331.208V209.864C331.208 213.704 332.54 215.624 335.204 215.624C336.5 215.624 337.712 215.216 338.84 214.4C339.992 213.56 340.844 212.42 341.396 210.98V199.208H344.564V214.4C344.564 215.144 344.9 215.528 345.572 215.552V218C345.212 218.048 344.924 218.072 344.708 218.072C344.516 218.096 344.324 218.108 344.132 218.108C343.532 218.108 343.016 217.928 342.584 217.568C342.152 217.184 341.924 216.716 341.9 216.164L341.828 213.968C341.012 215.36 339.908 216.44 338.516 217.208C337.148 217.976 335.648 218.36 334.016 218.36C330.032 218.36 328.04 215.732 328.04 210.476ZM359.777 201.98C358.193 202.004 356.789 202.412 355.565 203.204C354.365 203.972 353.513 205.04 353.009 206.408V218H349.841V199.208H352.793V203.564C353.441 202.268 354.293 201.224 355.349 200.432C356.429 199.616 357.557 199.16 358.733 199.064C358.973 199.064 359.177 199.064 359.345 199.064C359.513 199.064 359.657 199.076 359.777 199.1V201.98ZM372.855 201.98C371.271 202.004 369.867 202.412 368.643 203.204C367.443 203.972 366.591 205.04 366.087 206.408V218H362.919V199.208H365.871V203.564C366.519 202.268 367.371 201.224 368.427 200.432C369.507 199.616 370.635 199.16 371.811 199.064C372.051 199.064 372.255 199.064 372.423 199.064C372.591 199.064 372.735 199.076 372.855 199.1V201.98ZM383.892 218.36C382.02 218.36 380.364 217.916 378.924 217.028C377.484 216.14 376.356 214.952 375.54 213.464C374.724 211.976 374.316 210.356 374.316 208.604C374.316 206.828 374.724 205.208 375.54 203.744C376.356 202.28 377.484 201.104 378.924 200.216C380.388 199.328 382.056 198.884 383.928 198.884C385.824 198.884 387.468 199.34 388.86 200.252C390.276 201.14 391.368 202.316 392.136 203.78C392.928 205.22 393.324 206.78 393.324 208.46C393.324 208.988 393.3 209.396 393.252 209.684H377.664C377.76 210.908 378.096 212 378.672 212.96C379.272 213.896 380.04 214.64 380.976 215.192C381.912 215.72 382.92 215.984 384 215.984C385.152 215.984 386.232 215.696 387.24 215.12C388.272 214.544 388.98 213.788 389.364 212.852L392.1 213.608C391.5 215 390.456 216.14 388.968 217.028C387.48 217.916 385.788 218.36 383.892 218.36ZM377.556 207.488H390.372C390.276 206.264 389.928 205.184 389.328 204.248C388.728 203.312 387.96 202.58 387.024 202.052C386.088 201.524 385.056 201.26 383.928 201.26C382.824 201.26 381.804 201.524 380.868 202.052C379.932 202.58 379.164 203.312 378.564 204.248C377.988 205.184 377.652 206.264 377.556 207.488ZM413.153 218H409.985V207.488C409.985 205.496 409.673 204.044 409.049 203.132C408.449 202.196 407.525 201.728 406.277 201.728C405.413 201.728 404.549 201.944 403.685 202.376C402.845 202.808 402.089 203.396 401.417 204.14C400.769 204.86 400.301 205.7 400.013 206.66V218H396.845V199.208H399.725V203.24C400.469 201.92 401.537 200.864 402.929 200.072C404.345 199.28 405.881 198.884 407.537 198.884C409.001 198.884 410.129 199.232 410.921 199.928C411.737 200.6 412.313 201.536 412.649 202.736C412.985 203.912 413.153 205.256 413.153 206.768V218ZM427.624 217.064C427.24 217.232 426.628 217.472 425.788 217.784C424.972 218.096 424.06 218.252 423.052 218.252C421.9 218.252 420.904 217.94 420.064 217.316C419.224 216.668 418.804 215.672 418.804 214.328V201.692H416.248V199.208H418.804V192.944H421.972V199.208H426.184V201.692H421.972V213.356C422.02 214.028 422.248 214.532 422.656 214.868C423.064 215.18 423.544 215.336 424.096 215.336C424.72 215.336 425.296 215.228 425.824 215.012C426.352 214.796 426.7 214.64 426.868 214.544L427.624 217.064ZM430.632 191.72H433.8V213.14C433.8 214.172 433.944 214.808 434.232 215.048C434.52 215.288 434.868 215.408 435.276 215.408C435.78 215.408 436.26 215.36 436.716 215.264C437.172 215.144 437.556 215.024 437.868 214.904L438.372 217.496C437.844 217.712 437.22 217.892 436.5 218.036C435.78 218.18 435.144 218.252 434.592 218.252C433.368 218.252 432.396 217.904 431.676 217.208C430.98 216.512 430.632 215.54 430.632 214.292V191.72ZM441.057 223.112C441.369 223.136 441.681 223.16 441.993 223.184C442.305 223.232 442.545 223.256 442.713 223.256C443.097 223.256 443.433 223.124 443.721 222.86C444.009 222.596 444.321 222.08 444.657 221.312C445.017 220.568 445.473 219.464 446.025 218L438.069 199.208H441.417L447.753 214.796L453.477 199.208H456.609L447.465 222.932C447.153 223.772 446.589 224.504 445.773 225.128C444.981 225.776 443.913 226.1 442.569 226.1C442.353 226.1 442.125 226.088 441.885 226.064C441.669 226.04 441.393 225.992 441.057 225.92V223.112ZM306.705 248.564C306.705 247.364 307.041 246.332 307.713 245.468C308.409 244.58 309.357 243.896 310.557 243.416C311.757 242.936 313.149 242.696 314.733 242.696C315.573 242.696 316.461 242.768 317.397 242.912C318.333 243.032 319.161 243.224 319.881 243.488V242.12C319.881 240.68 319.449 239.552 318.585 238.736C317.721 237.896 316.497 237.476 314.913 237.476C313.881 237.476 312.885 237.668 311.925 238.052C310.989 238.412 309.993 238.94 308.937 239.636L307.785 237.404C309.009 236.564 310.233 235.94 311.457 235.532C312.681 235.1 313.953 234.884 315.273 234.884C317.673 234.884 319.569 235.556 320.961 236.9C322.353 238.22 323.049 240.068 323.049 242.444V250.4C323.049 251.144 323.385 251.528 324.057 251.552V254C323.745 254.048 323.469 254.084 323.229 254.108C323.013 254.132 322.833 254.144 322.689 254.144C321.945 254.144 321.381 253.94 320.997 253.532C320.637 253.124 320.433 252.692 320.385 252.236L320.313 251.048C319.497 252.104 318.429 252.92 317.109 253.496C315.789 254.072 314.481 254.36 313.185 254.36C311.937 254.36 310.821 254.108 309.837 253.604C308.853 253.076 308.085 252.38 307.533 251.516C306.981 250.628 306.705 249.644 306.705 248.564ZM318.945 249.896C319.233 249.56 319.461 249.224 319.629 248.888C319.797 248.528 319.881 248.228 319.881 247.988V245.648C318.345 245.048 316.761 244.748 315.129 244.748C313.521 244.748 312.213 245.072 311.205 245.72C310.221 246.344 309.729 247.208 309.729 248.312C309.729 248.912 309.885 249.5 310.197 250.076C310.533 250.628 311.013 251.084 311.637 251.444C312.285 251.804 313.077 251.984 314.013 251.984C314.997 251.984 315.933 251.792 316.821 251.408C317.709 251 318.417 250.496 318.945 249.896ZM332.917 254L325.537 235.208H328.849L334.753 250.976L340.657 235.208H343.753L336.373 254H332.917ZM344.99 248.564C344.99 247.364 345.326 246.332 345.998 245.468C346.694 244.58 347.642 243.896 348.842 243.416C350.042 242.936 351.434 242.696 353.018 242.696C353.858 242.696 354.746 242.768 355.682 242.912C356.618 243.032 357.446 243.224 358.166 243.488V242.12C358.166 240.68 357.734 239.552 356.87 238.736C356.006 237.896 354.782 237.476 353.198 237.476C352.166 237.476 351.17 237.668 350.21 238.052C349.274 238.412 348.278 238.94 347.222 239.636L346.07 237.404C347.294 236.564 348.518 235.94 349.742 235.532C350.966 235.1 352.238 234.884 353.558 234.884C355.958 234.884 357.854 235.556 359.246 236.9C360.638 238.22 361.334 240.068 361.334 242.444V250.4C361.334 251.144 361.67 251.528 362.342 251.552V254C362.03 254.048 361.754 254.084 361.514 254.108C361.298 254.132 361.118 254.144 360.974 254.144C360.23 254.144 359.666 253.94 359.282 253.532C358.922 253.124 358.718 252.692 358.67 252.236L358.598 251.048C357.782 252.104 356.714 252.92 355.394 253.496C354.074 254.072 352.766 254.36 351.47 254.36C350.222 254.36 349.106 254.108 348.122 253.604C347.138 253.076 346.37 252.38 345.818 251.516C345.266 250.628 344.99 249.644 344.99 248.564ZM357.23 249.896C357.518 249.56 357.746 249.224 357.914 248.888C358.082 248.528 358.166 248.228 358.166 247.988V245.648C356.63 245.048 355.046 244.748 353.414 244.748C351.806 244.748 350.498 245.072 349.49 245.72C348.506 246.344 348.014 247.208 348.014 248.312C348.014 248.912 348.17 249.5 348.482 250.076C348.818 250.628 349.298 251.084 349.922 251.444C350.57 251.804 351.362 251.984 352.298 251.984C353.282 251.984 354.218 251.792 355.106 251.408C355.994 251 356.702 250.496 357.23 249.896ZM366.4 231.68V227.72H369.568V231.68H366.4ZM366.4 254V235.208H369.568V254H366.4ZM374.769 227.72H377.937V249.14C377.937 250.172 378.081 250.808 378.369 251.048C378.657 251.288 379.005 251.408 379.413 251.408C379.917 251.408 380.397 251.36 380.853 251.264C381.309 251.144 381.693 251.024 382.005 250.904L382.509 253.496C381.981 253.712 381.357 253.892 380.637 254.036C379.917 254.18 379.281 254.252 378.729 254.252C377.505 254.252 376.533 253.904 375.813 253.208C375.117 252.512 374.769 251.54 374.769 250.292V227.72ZM383.521 248.564C383.521 247.364 383.857 246.332 384.529 245.468C385.225 244.58 386.173 243.896 387.373 243.416C388.573 242.936 389.965 242.696 391.549 242.696C392.389 242.696 393.277 242.768 394.213 242.912C395.149 243.032 395.977 243.224 396.697 243.488V242.12C396.697 240.68 396.265 239.552 395.401 238.736C394.537 237.896 393.313 237.476 391.729 237.476C390.697 237.476 389.701 237.668 388.741 238.052C387.805 238.412 386.809 238.94 385.753 239.636L384.601 237.404C385.825 236.564 387.049 235.94 388.273 235.532C389.497 235.1 390.769 234.884 392.089 234.884C394.489 234.884 396.385 235.556 397.777 236.9C399.169 238.22 399.865 240.068 399.865 242.444V250.4C399.865 251.144 400.201 251.528 400.873 251.552V254C400.561 254.048 400.285 254.084 400.045 254.108C399.829 254.132 399.649 254.144 399.505 254.144C398.761 254.144 398.197 253.94 397.813 253.532C397.453 253.124 397.249 252.692 397.201 252.236L397.129 251.048C396.313 252.104 395.245 252.92 393.925 253.496C392.605 254.072 391.297 254.36 390.001 254.36C388.753 254.36 387.637 254.108 386.653 253.604C385.669 253.076 384.901 252.38 384.349 251.516C383.797 250.628 383.521 249.644 383.521 248.564ZM395.761 249.896C396.049 249.56 396.277 249.224 396.445 248.888C396.613 248.528 396.697 248.228 396.697 247.988V245.648C395.161 245.048 393.577 244.748 391.945 244.748C390.337 244.748 389.029 245.072 388.021 245.72C387.037 246.344 386.545 247.208 386.545 248.312C386.545 248.912 386.701 249.5 387.013 250.076C387.349 250.628 387.829 251.084 388.453 251.444C389.101 251.804 389.893 251.984 390.829 251.984C391.813 251.984 392.749 251.792 393.637 251.408C394.525 251 395.233 250.496 395.761 249.896ZM414.579 254.36C413.115 254.36 411.783 254 410.583 253.28C409.383 252.56 408.435 251.624 407.739 250.472V254H404.931V227.72H408.099V238.952C408.891 237.728 409.863 236.744 411.015 236C412.167 235.256 413.511 234.884 415.047 234.884C416.343 234.884 417.507 235.16 418.539 235.712C419.571 236.24 420.447 236.972 421.167 237.908C421.911 238.82 422.475 239.864 422.859 241.04C423.267 242.192 423.471 243.404 423.471 244.676C423.471 246.428 423.075 248.048 422.283 249.536C421.515 251 420.459 252.176 419.115 253.064C417.771 253.928 416.259 254.36 414.579 254.36ZM413.787 251.624C415.059 251.624 416.175 251.3 417.135 250.652C418.095 249.98 418.851 249.116 419.403 248.06C419.955 247.004 420.231 245.876 420.231 244.676C420.231 243.452 419.967 242.3 419.439 241.22C418.935 240.14 418.215 239.276 417.279 238.628C416.367 237.956 415.299 237.62 414.075 237.62C412.731 237.62 411.531 238.052 410.475 238.916C409.443 239.78 408.651 240.812 408.099 242.012V247.448C408.267 248.24 408.651 248.96 409.251 249.608C409.875 250.232 410.595 250.724 411.411 251.084C412.251 251.444 413.043 251.624 413.787 251.624ZM427.433 227.72H430.601V249.14C430.601 250.172 430.745 250.808 431.033 251.048C431.321 251.288 431.669 251.408 432.077 251.408C432.581 251.408 433.061 251.36 433.517 251.264C433.973 251.144 434.357 251.024 434.669 250.904L435.173 253.496C434.645 253.712 434.021 253.892 433.301 254.036C432.581 254.18 431.945 254.252 431.393 254.252C430.169 254.252 429.197 253.904 428.477 253.208C427.781 252.512 427.433 251.54 427.433 250.292V227.72ZM445.977 254.36C444.105 254.36 442.449 253.916 441.009 253.028C439.569 252.14 438.441 250.952 437.625 249.464C436.809 247.976 436.401 246.356 436.401 244.604C436.401 242.828 436.809 241.208 437.625 239.744C438.441 238.28 439.569 237.104 441.009 236.216C442.473 235.328 444.141 234.884 446.013 234.884C447.909 234.884 449.553 235.34 450.945 236.252C452.361 237.14 453.453 238.316 454.221 239.78C455.013 241.22 455.409 242.78 455.409 244.46C455.409 244.988 455.385 245.396 455.337 245.684H439.749C439.845 246.908 440.181 248 440.757 248.96C441.357 249.896 442.125 250.64 443.061 251.192C443.997 251.72 445.005 251.984 446.085 251.984C447.237 251.984 448.317 251.696 449.325 251.12C450.357 250.544 451.065 249.788 451.449 248.852L454.185 249.608C453.585 251 452.541 252.14 451.053 253.028C449.565 253.916 447.873 254.36 445.977 254.36ZM439.641 243.488H452.457C452.361 242.264 452.013 241.184 451.413 240.248C450.813 239.312 450.045 238.58 449.109 238.052C448.173 237.524 447.141 237.26 446.013 237.26C444.909 237.26 443.889 237.524 442.953 238.052C442.017 238.58 441.249 239.312 440.649 240.248C440.073 241.184 439.737 242.264 439.641 243.488Z" fill="white"/>
</svg>
